<svg width="914" height="400" fill="none" xmlns="http://www.w3.org/2000/svg"><style>#CL0 {fill: #333;}@media (prefers-color-scheme: dark) {#CL0 {fill: #DDD;}}</style><path d="M438.971 207.616a2.294 2.294 0 0 1-.56.504 1.638 1.638 0 0 1-.336.252c-.131.075-.271.14-.42.196a1.701 1.701 0 0 1-.476.14c-.019.019-.038.028-.056.028h-.14v.028h-.168c-.019.019-.047.028-.084.028a3.189 3.189 0 0 1-.84 0 3.877 3.877 0 0 1-.448-.084 1.692 1.692 0 0 1-.476-.14 2.86 2.86 0 0 1-.868-.532 2.964 2.964 0 0 1-.644-.756 2.482 2.482 0 0 1-.392-.812 3.61 3.61 0 0 1-.252-.756 3.054 3.054 0 0 1-.084-.364c0-.131-.01-.261-.028-.392l-.056-.336v-.336a3.956 3.956 0 0 1-.112.252l-.112.224c-.075.149-.15.308-.224.476a5.616 5.616 0 0 1-.252.448c-.15.299-.336.597-.56.896a8.575 8.575 0 0 1-.336.42 4.243 4.243 0 0 1-.392.448c-.075.075-.15.14-.224.196a8.577 8.577 0 0 0-.252.196 5.492 5.492 0 0 1-.588.336 5.813 5.813 0 0 1-.308.112 2.157 2.157 0 0 1-.364.084h-.056c0 .019-.019.028-.056.028h-.252a.342.342 0 0 1-.196 0h-.196a3.444 3.444 0 0 1-.364-.084 1.552 1.552 0 0 1-.392-.112 2.098 2.098 0 0 1-.672-.448 1.9 1.9 0 0 1-.476-.56 1.698 1.698 0 0 1-.196-.308 4.033 4.033 0 0 1-.14-.308 2.651 2.651 0 0 1-.196-.588 5.379 5.379 0 0 1-.14-.588 2.8 2.8 0 0 1-.056-.56l-.056-.56v-.532c0-.187.009-.373.028-.56.018-.355.056-.7.112-1.036.037-.355.093-.709.168-1.064.056-.336.13-.672.224-1.008l.28-1.008c.242-.709.494-1.372.756-1.988.149-.317.308-.635.476-.952.168-.317.354-.635.56-.952.186-.299.41-.607.672-.924.13-.149.261-.289.392-.42.13-.149.27-.299.42-.448a5.891 5.891 0 0 1 1.008-.784 4.537 4.537 0 0 1 1.288-.588c.242-.093.494-.149.756-.168.261-.037.522-.056.784-.056.504.037 1.008.14 1.512.308.41.149.83.364 1.26.644.093.075.177.149.252.224.093.056.177.121.252.196.112.075.196.14.252.196a.17.17 0 0 1 .112.112l.112.084c.392.373.597.821.616 1.344.018.523-.15.98-.504 1.372a2.053 2.053 0 0 1-1.344.616 1.738 1.738 0 0 1-1.344-.532.304.304 0 0 1-.084-.056c0-.019-.019-.037-.056-.056l-.028-.056-.028-.028-.056-.056c-.019-.037-.038-.056-.056-.056l-.056-.056-.224-.224a1.48 1.48 0 0 0-.252-.168.75.75 0 0 0-.196-.14 1.662 1.662 0 0 0-.196-.084.52.52 0 0 0-.168-.028 1.355 1.355 0 0 0-.392 0 .903.903 0 0 0-.504.168 1.876 1.876 0 0 0-.28.14 2.415 2.415 0 0 0-.28.196 3.823 3.823 0 0 0-.588.532l-.532.588c-.168.224-.336.457-.504.7a12.027 12.027 0 0 0-.868 1.54c-.112.261-.234.523-.364.784a13.163 13.163 0 0 0-.588 1.708c-.094.28-.178.569-.252.868-.056.28-.103.569-.14.868a3.8 3.8 0 0 0-.084.42c0 .131-.01.271-.028.42v.42c0 .131.009.271.028.42 0 .131.009.261.028.392.018.112.046.215.084.308l.056.168.056.112.056.112a.368.368 0 0 1 .056.084.617.617 0 0 1 .14.112l.168.056c.018 0 .028.009.028.028h.196a.9.9 0 0 0 .252-.056c.186-.037.382-.14.588-.308.093-.093.186-.177.28-.252.112-.093.214-.196.308-.308l.28-.336c.093-.112.186-.233.28-.364l.504-.756a34.523 34.523 0 0 0 .896-1.68c.261-.523.513-1.101.756-1.736l.112-.28a4.81 4.81 0 0 1 .112-.308c.037-.187.074-.327.112-.42l.056-.28c.018-.112.046-.224.084-.336a6.24 6.24 0 0 0 .084-.308l.056-.168a.223.223 0 0 0 .028-.084c0-.019.009-.047.028-.084v-.056c.186-.504.513-.877.98-1.12.485-.243.989-.28 1.512-.112.522.168.905.495 1.148.98.242.467.28.961.112 1.484a.422.422 0 0 0-.056.168l-.056.112-.056.112-.084.252a3.956 3.956 0 0 1-.112.252 2.06 2.06 0 0 1-.084.252l-.168.504c-.056.168-.112.345-.168.532a5.262 5.262 0 0 1-.14.504 4.35 4.35 0 0 0-.14.532 7.565 7.565 0 0 1-.056.252 4.54 4.54 0 0 0-.056.252l-.084.504a4.415 4.415 0 0 0-.084.504 3.545 3.545 0 0 0-.028.448.787.787 0 0 0 0 .42c0 .187.009.317.028.392a.9.9 0 0 0 .056.28.439.439 0 0 1 .056.168.59.59 0 0 0 .112.14c.018.019.084.056.196.112.112.037.224.056.336.056.037 0 .065.009.084.028h.056-.028.112a.306.306 0 0 1 .14-.028.733.733 0 0 0 .168-.084l.168-.112c.056-.037.121-.075.196-.112.13-.093.252-.196.364-.308.13-.112.252-.243.364-.392a9.86 9.86 0 0 0 .728-.812l.336-.448c.13-.168.242-.327.336-.476l.168-.224a3.06 3.06 0 0 0 .168-.252c.13-.149.233-.308.308-.476a3.06 3.06 0 0 1 .168-.252c.056-.075.102-.159.14-.252.13-.149.233-.308.308-.476.056-.093.102-.177.14-.252a3.06 3.06 0 0 0 .168-.252l.14-.252.14-.252v-.028a.588.588 0 0 1 .28-.196.426.426 0 0 1 .336.028c.224.131.298.308.224.532l-.056.14-.056.168-.084.28-.112.28a1.655 1.655 0 0 1-.084.28l-.112.28-.112.28a5.866 5.866 0 0 1-.224.56l-.112.28-.112.28a2.031 2.031 0 0 1-.14.28l-.112.28-.28.56c-.094.168-.187.345-.28.532-.206.373-.43.737-.672 1.092a5.756 5.756 0 0 1-.84 1.036Zm11.971-4.816a14.41 14.41 0 0 1-.42.924l-.448.896c-.168.299-.345.597-.532.896-.187.28-.392.56-.616.84a2.364 2.364 0 0 1-.336.42 6.851 6.851 0 0 1-.364.392 7.533 7.533 0 0 1-.448.364c-.131.131-.28.252-.448.364a5.232 5.232 0 0 1-1.12.56 2.903 2.903 0 0 1-.644.168.52.52 0 0 1-.168.028.52.52 0 0 0-.168.028h-.364c-.299 0-.597-.056-.896-.168a2.888 2.888 0 0 1-.42-.196 4.085 4.085 0 0 1-.336-.252l-.28-.28a3.536 3.536 0 0 1-.252-.28 1.698 1.698 0 0 1-.196-.308l-.168-.28-.168-.28-.112-.28a3.462 3.462 0 0 0-.112-.252l-.112-.28a18.124 18.124 0 0 0-.168-.532l-.112-.56a14.05 14.05 0 0 1-.336-2.072 19.016 19.016 0 0 1-.112-2.044v-1.008a4.48 4.48 0 0 0 .028-.504c0-.168.009-.327.028-.476v-.28a1.4 1.4 0 0 0 .028-.28c-.019-.205 0-.429.056-.672.037-.467.084-.924.14-1.372.056-.448.112-.905.168-1.372.187-1.307.42-2.595.7-3.864.28-1.288.625-2.576 1.036-3.864.093-.317.196-.625.308-.924.112-.317.233-.635.364-.952.056-.149.112-.308.168-.476.056-.168.121-.327.196-.476.075-.149.14-.299.196-.448.056-.168.121-.327.196-.476.299-.653.635-1.26 1.008-1.82a9.154 9.154 0 0 1 1.344-1.68l.196-.196a1.31 1.31 0 0 1 .252-.196c.075-.075.149-.14.224-.196a3.06 3.06 0 0 1 .252-.168l.28-.168a1.52 1.52 0 0 1 .308-.14c.205-.112.429-.187.672-.224a.808.808 0 0 1 .196-.028h.504c.037 0 .065.009.084.028.112 0 .261.037.448.112.131.056.271.14.42.252a.734.734 0 0 1 .14.196c.056.056.103.112.14.168.075.112.131.233.168.364.075.205.112.42.112.644.019.205.019.401 0 .588a4.905 4.905 0 0 1-.084.504c-.037.187-.075.364-.112.532a5.396 5.396 0 0 1-.224.98 4.052 4.052 0 0 0-.14.448 2.06 2.06 0 0 0-.084.252.501.501 0 0 1-.056.224l-.168.476c-.093.317-.196.625-.308.924-.093.299-.196.607-.308.924l-.168.448-.168.448-.336.924a85.683 85.683 0 0 1-1.428 3.612 88.868 88.868 0 0 1-1.596 3.612l-.448.896a20.03 20.03 0 0 1-.42.896 3.903 3.903 0 0 0-.252.476 4.582 4.582 0 0 1-.196.448l-.252.448-.112.224a.904.904 0 0 0-.028.224c0 .075-.009.159-.028.252a3.774 3.774 0 0 0-.028.476c0 .149-.009.299-.028.448l-.056.448c0 .149-.009.299-.028.448l-.056.924v2.212c.019.131.037.271.056.42.019.149.028.289.028.42.019.131.047.261.084.392.037.131.065.252.084.364.037.112.075.215.112.308.037.131.075.215.112.252.019.093.047.149.084.168.037.037.056.065.056.084l.056.028h.252c.131 0 .233-.009.308-.028.149-.019.355-.093.616-.224.243-.131.457-.271.644-.42.112-.093.224-.177.336-.252.112-.093.215-.187.308-.28.205-.205.401-.42.588-.644.187-.224.373-.467.56-.728.187-.243.364-.495.532-.756.168-.261.327-.523.476-.784a2.12 2.12 0 0 0 .224-.392c.075-.131.159-.271.252-.42.037-.075.065-.14.084-.196l.112-.224.112-.196.084-.196.028-.028a.619.619 0 0 1 .308-.308.538.538 0 0 1 .448.028c.299.149.401.383.308.7l-.028.112-.028.14a1.898 1.898 0 0 0-.084.224 2.06 2.06 0 0 0-.084.252 4.859 4.859 0 0 1-.084.224l-.336.924Zm-5.208-11.284a6.173 6.173 0 0 0-.112.476c.149-.205.289-.42.42-.644.131-.224.261-.439.392-.644a39.216 39.216 0 0 0 1.764-3.388 42.046 42.046 0 0 0 1.428-3.528c.037-.075.065-.14.084-.196.019-.075.037-.159.056-.252.037-.075.065-.14.084-.196.019-.075.037-.159.056-.252l.112-.448c.037-.149.065-.299.084-.448a3.545 3.545 0 0 0 .112-.896v-.42a.808.808 0 0 1-.028-.196.347.347 0 0 0-.056-.196c-.037-.149-.075-.243-.112-.28 0-.037-.019-.056-.056-.056 0-.019-.009-.028-.028-.028v.056h-.028l-.028.028h-.028l-.028.028c-.019 0-.047.019-.084.056-.075.019-.14.075-.196.168l-.112.112-.112.112a7.6 7.6 0 0 1-.196.308 3.075 3.075 0 0 1-.196.336l-.336.756c-.056.149-.112.289-.168.42a4.148 4.148 0 0 0-.168.392 2.758 2.758 0 0 1-.14.42c-.056.131-.112.271-.168.42l-.308.84a28.052 28.052 0 0 0-.56 1.764c-.168.579-.336 1.167-.504 1.764a67.423 67.423 0 0 0-.84 3.612Zm3.834 14.28a2.221 2.221 0 0 1-.056-.476c0-.168-.009-.327-.028-.476v-.868c.019-.56.075-1.12.168-1.68.038-.261.084-.523.14-.784l.112-.812.168-.784c.056-.28.122-.551.196-.812.056-.261.112-.513.168-.756l.224-.784c.075-.261.15-.513.224-.756.075-.243.15-.495.224-.756l.504-1.512.252-.756.14-.364a.443.443 0 0 0 .056-.196c.019-.056.047-.121.084-.196a1.876 1.876 0 0 1 1.036-1.064 1.858 1.858 0 0 1 1.512-.028c.504.205.868.551 1.092 1.036.224.485.234.98.028 1.484a.118.118 0 0 0-.028.084h-.028l-.14.336-.14.336-.168.336-.112.336a7.789 7.789 0 0 1-.308.7 30.91 30.91 0 0 0-.28.7 30.91 30.91 0 0 0-.28.7c-.074.224-.158.457-.252.7a7.898 7.898 0 0 0-.252.7c-.074.224-.158.457-.252.7a7.898 7.898 0 0 0-.252.7c-.056.224-.13.457-.224.7-.074.224-.14.457-.196.7-.056.224-.112.457-.168.7-.074.224-.14.457-.196.7l-.112.672-.056.336c0 .112-.009.215-.028.308 0 .112-.009.224-.028.336v.28a1.4 1.4 0 0 1 .028.28c0 .075.01.149.028.224v.084c.019.019.028.037.028.056a.244.244 0 0 1 .028.112v.056c.019 0 .028.009.028.028h.14c.019 0 .028.009.028.028h.056a.306.306 0 0 0 .14-.028.926.926 0 0 0 .224-.056c.131-.056.299-.149.504-.28a4.3 4.3 0 0 0 .532-.392l.28-.224c.094-.075.187-.159.28-.252.336-.317.682-.663 1.036-1.036a13.7 13.7 0 0 1 .504-.532c.168-.187.336-.383.504-.588.15-.205.346-.467.588-.784.262-.317.467-.579.616-.784.094-.093.168-.187.224-.28.075-.112.159-.215.252-.308l.224-.308.112-.168a.964.964 0 0 1 .112-.14.446.446 0 0 1 .28-.168.42.42 0 0 1 .364.056c.187.149.234.336.14.56a1.98 1.98 0 0 0-.112.196.66.66 0 0 1-.084.168l-.168.336c-.112.28-.233.513-.364.7-.13.243-.298.541-.504.896l-.504.868-.448.672a14.581 14.581 0 0 1-.896 1.344c-.149.205-.308.411-.476.616l-.28.336a1.924 1.924 0 0 1-.252.308l-.308.308a4.945 4.945 0 0 1-.336.308 5.95 5.95 0 0 1-.756.56l-.224.112a1.057 1.057 0 0 1-.252.14c-.149.075-.354.14-.616.196h-.084l-.084.028h-.14a1.305 1.305 0 0 1-.308.028 1.95 1.95 0 0 1-.672-.112 8.642 8.642 0 0 0-.364-.112 1.389 1.389 0 0 1-.336-.168 2.891 2.891 0 0 1-.56-.476 2.224 2.224 0 0 1-.392-.56 2.47 2.47 0 0 1-.252-.56 2.091 2.091 0 0 1-.14-.532 14.957 14.957 0 0 0-.112-.476Zm7.532-17.836c-.69 0-1.278-.233-1.764-.7a2.453 2.453 0 0 1-.7-1.764c0-.691.234-1.269.7-1.736a2.406 2.406 0 0 1 1.764-.728 2.37 2.37 0 0 1 1.736.728c.486.467.728 1.045.728 1.736 0 .691-.242 1.279-.728 1.764-.485.467-1.064.7-1.736.7Zm7.353 26.684c-.131.243-.261.476-.392.7-.131.243-.271.485-.42.728a9.054 9.054 0 0 1-.476.7 5.921 5.921 0 0 1-.504.7 2.835 2.835 0 0 1-.308.364l-.28.336-.336.336a6.347 6.347 0 0 1-.364.336 8.504 8.504 0 0 1-.42.28 3.487 3.487 0 0 1-.42.308l-.056.028-.056.056a.206.206 0 0 1-.084.028c-.019 0-.037.009-.056.028a.19.19 0 0 1-.14.056.357.357 0 0 0-.14.084 1.655 1.655 0 0 1-.28.084l-.28.112a7.697 7.697 0 0 1-.588.084 2.044 2.044 0 0 1-.588.028c-.411 0-.803-.065-1.176-.196a3.588 3.588 0 0 1-1.092-.56 3.124 3.124 0 0 1-.868-.98 2.545 2.545 0 0 1-.308-.588 3.713 3.713 0 0 1-.168-.616c-.056-.467-.047-.868.028-1.204.056-.411.149-.756.28-1.036.131-.317.28-.616.448-.896a.734.734 0 0 1 .14-.196c.037-.056.075-.121.112-.196.019-.019.065-.084.14-.196l.056-.084.028-.056.028-.028h.028c.056-.075.112-.14.168-.196.037-.056.084-.121.14-.196l.168-.168c.056-.056.112-.103.168-.14.243-.243.476-.439.7-.588.112-.093.224-.177.336-.252l.336-.224c.224-.168.448-.327.672-.476.243-.131.476-.261.7-.392.224-.149.448-.289.672-.42.243-.112.476-.233.7-.364a90.29 90.29 0 0 1 1.372-.728l1.26-.672.112-.392a3.23 3.23 0 0 0 .14-.392c.317-.989.597-1.951.84-2.884.075-.205.131-.411.168-.616l.168-.616a3.075 3.075 0 0 1-.196.336 2.503 2.503 0 0 1-.196.28 6.024 6.024 0 0 1-.588.784 6.347 6.347 0 0 0-.336.364 3.688 3.688 0 0 1-.392.336c-.261.224-.569.42-.924.588l-.28.112a1.655 1.655 0 0 0-.28.084.93.93 0 0 1-.28.056c-.037 0-.065.009-.084.028h-.224a2.005 2.005 0 0 1-.336.028l-.336-.056a4.812 4.812 0 0 1-.336-.084l-.336-.112a4.506 4.506 0 0 0-.308-.168l-.28-.224a3.305 3.305 0 0 1-.476-.532 2.781 2.781 0 0 1-.308-.56 3.462 3.462 0 0 0-.112-.252 1.655 1.655 0 0 0-.084-.28 5.716 5.716 0 0 1-.196-1.092 4.48 4.48 0 0 1-.028-.504v-.504c0-.168.009-.336.028-.504 0-.168.009-.327.028-.476.037-.317.084-.635.14-.952.075-.317.159-.635.252-.952.093-.317.187-.625.28-.924.093-.299.205-.597.336-.896.112-.299.243-.588.392-.868.149-.299.299-.588.448-.868.355-.616.756-1.176 1.204-1.68.224-.243.476-.495.756-.756.243-.243.541-.467.896-.672.168-.112.345-.205.532-.28.187-.093.383-.187.588-.28a4.523 4.523 0 0 1 1.288-.252c.467-.019.924.009 1.372.084.448.112.859.252 1.232.42.187.093.364.196.532.308.187.093.355.196.504.308.093.075.168.14.224.196l.224.168c.056.037.131.103.224.196l.084.084.112.084c.392.373.597.821.616 1.344.019.523-.149.98-.504 1.372a2.05 2.05 0 0 1-1.344.616 1.826 1.826 0 0 1-1.372-.532l-.112-.112-.028-.056-.028-.028-.056-.056-.112-.112-.112-.112-.112-.112-.224-.168a.734.734 0 0 0-.196-.14.636.636 0 0 0-.224-.112l-.168-.112a.808.808 0 0 0-.196-.028.61.61 0 0 0-.196-.028c-.093-.019-.233-.009-.42.028a2.878 2.878 0 0 0-.476.168 3.232 3.232 0 0 0-.532.308c-.168.131-.336.271-.504.42a6.572 6.572 0 0 0-.98 1.12c-.149.205-.289.42-.42.644a10.53 10.53 0 0 0-.392.672 8.103 8.103 0 0 0-.364.7c-.112.243-.215.485-.308.728-.093.261-.177.513-.252.756-.075.243-.14.495-.196.756a6.83 6.83 0 0 0-.168 1.484v.336c0 .112.019.224.056.336a1.7 1.7 0 0 0 .14.504c.037.075.075.121.112.14a.17.17 0 0 0 .112.112.19.19 0 0 0 .14.056.501.501 0 0 0 .224.056h.252a.452.452 0 0 1 .14-.028.306.306 0 0 0 .14-.028l.28-.112.336-.168c.093-.056.187-.121.28-.196.112-.075.215-.159.308-.252l.28-.28.28-.28c.336-.373.672-.812 1.008-1.316.149-.243.289-.476.42-.7.149-.243.299-.495.448-.756.075-.131.14-.252.196-.364a3.77 3.77 0 0 0 .196-.392c.037-.075.065-.14.084-.196.037-.056.075-.121.112-.196l.084-.196.056-.084.028-.112.056-.112c.131-.504.42-.896.868-1.176.448-.28.933-.364 1.456-.252.541.112.952.401 1.232.868.299.448.392.933.28 1.456 0 .019-.009.028-.028.028l-.084.392-.084.392-.112.392a3.502 3.502 0 0 1-.084.364l-.224.784a14.65 14.65 0 0 1-.196.756c-.149.485-.289.961-.42 1.428-.131.448-.271.915-.42 1.4.093-.075.187-.14.28-.196.093-.056.187-.121.28-.196l.616-.448.616-.448a4.69 4.69 0 0 0 .56-.476l.56-.504c.373-.336.728-.691 1.064-1.064a4.69 4.69 0 0 0 .476-.56c.093-.093.233-.271.42-.532.187-.261.317-.439.392-.532v-.028a.36.36 0 0 1 .224-.14.383.383 0 0 1 .28.056c.168.131.205.28.112.448a4.11 4.11 0 0 1-.252.42c-.112.168-.224.345-.336.532l-.336.504c-.112.149-.205.28-.28.392a8.05 8.05 0 0 1-.476.644l-.504.616c-.187.205-.373.401-.56.588a7.99 7.99 0 0 1-.56.56c-.373.373-.756.728-1.148 1.064-.373.317-.756.616-1.148.896l-1.12.896-.252.672c-.093.261-.187.504-.28.728-.093.243-.187.495-.28.756a40.065 40.065 0 0 1-.616 1.484c-.205.485-.42.971-.644 1.456-.224.485-.467.971-.728 1.456Zm-2.968-1.484c.224-.448.42-.896.588-1.344a.634.634 0 0 0 .084-.196.733.733 0 0 1 .084-.168c-.075.037-.14.075-.196.112a1.798 1.798 0 0 1-.196.112 12.46 12.46 0 0 1-.616.42l-.616.448c-.429.299-.831.588-1.204.868-.187.149-.364.299-.532.448-.149.168-.299.327-.448.476l-.112.112-.112.112a.495.495 0 0 0-.14.224l-.112.112-.028.056a.338.338 0 0 0-.056.084c-.019.056-.065.14-.14.252a6.558 6.558 0 0 0-.224.504.692.692 0 0 0-.056.252c-.019.075-.037.14-.056.196 0 .168.009.28.028.336 0 .056.009.093.028.112l.056.112a.814.814 0 0 0 .168.14.962.962 0 0 0 .28.14 1.477 1.477 0 0 0 .7-.028l.168-.084c.037 0 .065-.009.084-.028l.028-.028h.028v-.028a.734.734 0 0 0 .196-.14c.056-.056.121-.112.196-.168.149-.131.28-.28.392-.448a6.225 6.225 0 0 0 .756-1.092c.112-.187.233-.383.364-.588.112-.205.215-.42.308-.644.112-.205.215-.42.308-.644Zm27.382-12.124a4.78 4.78 0 0 1-.588.728c-.206.243-.43.476-.672.7a6.48 6.48 0 0 1-1.176.924c-.131.093-.28.187-.448.28a3.752 3.752 0 0 1-1.008.392 3.53 3.53 0 0 1-1.12.168h-.14l-.42.672c-.355.56-.738 1.073-1.148 1.54a6.762 6.762 0 0 1-.728.728 8.996 8.996 0 0 1-.784.644l-.448.28c-.15.093-.308.187-.476.28a2.179 2.179 0 0 1-.252.084 3.462 3.462 0 0 1-.252.112c-.131.075-.308.14-.532.196a.76.76 0 0 1-.28.056 5.675 5.675 0 0 1-.252.056 1.407 1.407 0 0 1-.28.028l-.28.056h-.28a1.163 1.163 0 0 1-.28.028 1.553 1.553 0 0 0-.308-.028c-.094 0-.196-.009-.308-.028a5.037 5.037 0 0 1-1.232-.336 3.57 3.57 0 0 1-.588-.336 5.917 5.917 0 0 1-.532-.42 3.629 3.629 0 0 1-.812-1.036 7.468 7.468 0 0 1-.28-.56 5.403 5.403 0 0 1-.196-.588 6.182 6.182 0 0 1-.252-1.12 2.668 2.668 0 0 1-.056-.532c0-.187-.01-.373-.028-.56 0-.709.056-1.4.168-2.072.056-.336.121-.663.196-.98.074-.336.158-.663.252-.98.186-.616.41-1.241.672-1.876a14.76 14.76 0 0 1 .896-1.82c.168-.317.345-.616.532-.896a21.8 21.8 0 0 1 .672-.868c.112-.149.233-.289.364-.42.13-.131.27-.261.42-.392.261-.261.578-.523.952-.784a4.8 4.8 0 0 1 1.232-.644c.112-.056.224-.093.336-.112l.392-.112.42-.084h.252c.018-.019.046-.028.084-.028h.084c.41-.019.784.065 1.12.252.354.187.634.439.84.756a5.487 5.487 0 0 1 1.008-.084l.336.056c.112 0 .233.019.364.056.261.093.485.196.672.308.205.131.401.289.588.476.149.187.28.373.392.56.112.187.196.373.252.56.074.187.13.373.168.56a4.986 4.986 0 0 1 .112 1.064c.018.336.009.672-.028 1.008a8.342 8.342 0 0 1-.112.952 16.864 16.864 0 0 1-.42 1.848c-.094.317-.187.625-.28.924-.094.28-.206.569-.336.868a2.66 2.66 0 0 1-.14.336 4.81 4.81 0 0 0-.112.308c.093-.019.186-.028.28-.028.093-.019.186-.047.28-.084l.336-.112.392-.168a5.23 5.23 0 0 0 .7-.392 9.25 9.25 0 0 0 .7-.476 4.77 4.77 0 0 0 .308-.28l.336-.28c.112-.093.214-.196.308-.308l.308-.308a.429.429 0 0 1 .308-.14c.112-.019.214.019.308.112.186.187.214.373.084.56l-.28.392a5.679 5.679 0 0 0-.28.364Zm-5.572-6.412c-.336.019-.607.196-.812.532a1.54 1.54 0 0 0-.168.224.944.944 0 0 0-.056.14 1.838 1.838 0 0 0-.224.7c-.038.205-.075.401-.112.588a5.265 5.265 0 0 0-.084.588 7.44 7.44 0 0 0-.056.308v.308a1.546 1.546 0 0 0-.028.308c.018.093.028.196.028.308.018.093.028.196.028.308 0 .093.018.196.056.308a.9.9 0 0 0 .056.28v.084c0 .019.009.028.028.028v.056a.223.223 0 0 1 .028.084c0 .019.009.047.028.084.112.392.289.793.532 1.204.056.093.112.177.168.252.074.075.149.159.224.252.093.093.168.159.224.196a.597.597 0 0 0 .14.084c.056-.149.112-.289.168-.42.074-.149.14-.299.196-.448.093-.261.177-.523.252-.784.093-.28.177-.56.252-.84.074-.261.13-.532.168-.812l.112-.84a6.11 6.11 0 0 0 0-.812c0-.28-.019-.551-.056-.812a2.276 2.276 0 0 0-.168-.7c-.094-.261-.187-.439-.28-.532a.814.814 0 0 0-.168-.14c-.038-.056-.084-.084-.14-.084h-.056c-.019-.019-.047-.028-.084-.028a.61.61 0 0 0-.196.028Zm-1.848 9.94c.186-.187.364-.392.532-.616.018 0 .028-.009.028-.028a3.115 3.115 0 0 1-.252-.112 1.254 1.254 0 0 0-.224-.112 13.61 13.61 0 0 1-.532-.28 10.325 10.325 0 0 1-.476-.336 7.417 7.417 0 0 1-1.512-1.736 1.54 1.54 0 0 1-.168-.224l-.028-.084h-.028v-.056l-.056-.056c0-.019-.01-.037-.028-.056a2.031 2.031 0 0 0-.14-.28l-.112-.28a6.273 6.273 0 0 1-.336-1.12 5.7 5.7 0 0 1-.112-1.176v-.336l-.056.056c0 .019-.01.037-.028.056a9.914 9.914 0 0 0-.84 1.344 13.216 13.216 0 0 0-1.176 2.912c-.056.261-.112.513-.168.756a8.822 8.822 0 0 0-.084.756c-.056.523-.047.971.028 1.344.018.168.065.355.14.56l.112.224.112.168c.056.056.102.112.14.168.056.037.121.075.196.112.13.075.289.14.476.196a.987.987 0 0 0 .308.056.31.31 0 0 1 .14.028h.672a.52.52 0 0 1 .168-.028 4.166 4.166 0 0 0 1.372-.42 8.852 8.852 0 0 0 1.316-.84 4.77 4.77 0 0 0 .308-.28 4.77 4.77 0 0 0 .308-.28Z" id="CL0"/></svg>